<svg id="Layer_1" data-name="Layer 1" xmlns="http://www.w3.org/2000/svg" viewBox="0 0 60.94 61.39"><defs><style>.cls-1{fill:#fff;}.cls-2{fill:none;}.cls-2,.cls-3{stroke:#000;stroke-miterlimit:10;}</style></defs><rect x="18.19" y="9.69" width="6.57" height="6.57"/><rect class="cls-1" x="24.76" y="9.69" width="6.57" height="6.57"/><rect x="31.33" y="9.69" width="6.57" height="6.57"/><rect class="cls-1" x="37.9" y="9.69" width="6.57" height="6.57"/><path d="M44.47,9.69H49.9A1.14,1.14,0,0,1,51,10.83v5.43a0,0,0,0,1,0,0H44.47a0,0,0,0,1,0,0V9.69A0,0,0,0,1,44.47,9.69Z"/><rect x="18.19" y="22.83" width="6.57" height="6.57"/><rect class="cls-1" x="24.76" y="22.83" width="6.57" height="6.57"/><rect x="31.33" y="22.83" width="6.57" height="6.57"/><rect class="cls-1" x="37.9" y="22.83" width="6.57" height="6.57"/><rect x="44.47" y="22.83" width="6.57" height="6.57"/><rect x="24.76" y="16.26" width="6.57" height="6.57"/><rect class="cls-1" x="31.33" y="16.26" width="6.57" height="6.57"/><rect x="37.9" y="16.26" width="6.57" height="6.57"/><rect class="cls-1" x="44.47" y="16.26" width="6.57" height="6.57"/><rect class="cls-1" x="18.19" y="16.26" width="6.57" height="6.57"/><rect x="24.76" y="29.4" width="6.57" height="6.57"/><rect class="cls-1" x="31.33" y="29.4" width="6.57" height="6.57"/><rect x="37.9" y="29.4" width="6.57" height="6.57"/><rect class="cls-1" x="44.47" y="29.4" width="6.57" height="6.57"/><rect class="cls-1" x="18.19" y="29.4" width="6.57" height="6.57"/><path class="cls-2" d="M51,34a2,2,0,0,1-2,2H18.19V9.69H48.8A2.23,2.23,0,0,1,51,11.92Z"/><rect class="cls-3" x="14.56" y="9.69" width="3.8" height="43.8"/></svg>