<svg id="Layer_1" data-name="Layer 1" xmlns="http://www.w3.org/2000/svg" viewBox="0 0 263.22 305.4"><defs><style>.cls-1{fill:#cb902b;}.cls-1,.cls-2,.cls-3,.cls-4,.cls-5,.cls-6{stroke:#231f20;stroke-miterlimit:10;stroke-width:4px;}.cls-2{fill:#bb7b2a;}.cls-3{fill:#ecaf22;}.cls-4{fill:#e2a525;}.cls-5{fill:#f2c25a;}.cls-6{fill:#ffc758;}</style></defs><rect class="cls-1" x="35.45" y="156.2" width="25.12" height="52.19" rx="12.56" transform="translate(96.02 364.58) rotate(180)"/><rect class="cls-1" x="35.45" y="223.18" width="25.12" height="52.19" rx="12.56" transform="translate(96.02 498.55) rotate(-180)"/><path class="cls-2" d="M45.69,183.22,45,246.36c.1,4,1.68,7.15,3.52,7.1h0c1.84-.05,3.24-3.31,3.13-7.28L52.35,183c-.11-4-1.69-7.15-3.52-7.1h0C47,176,45.59,179.25,45.69,183.22Z"/><path class="cls-2" d="M53.38,220.43l34.8-21.16c2.09-1.48,2.78-4.1,1.53-5.86h0c-1.24-1.76-3.94-2-6-.51l-34.8,21.16c-2.09,1.48-2.78,4.1-1.54,5.86h0C48.59,221.68,51.29,221.91,53.38,220.43Z"/><rect class="cls-1" x="40.32" y="94.6" width="25.12" height="45.8" rx="12.56" transform="translate(105.77 235) rotate(180)"/><path class="cls-2" d="M54.86,119.57l31.06,14.58a3.9,3.9,0,0,0,5-2.28h0a3.9,3.9,0,0,0-2.29-5L57.59,112.26a3.9,3.9,0,0,0-5,2.29h0A3.91,3.91,0,0,0,54.86,119.57Z"/><rect class="cls-1" x="200.84" y="156.2" width="25.12" height="52.19" rx="12.56"/><rect class="cls-1" x="200.84" y="223.18" width="25.12" height="52.19" rx="12.56"/><path class="cls-2" d="M215.71,183.22l.67,63.14c-.11,4-1.69,7.15-3.53,7.1h0c-1.83-.05-3.24-3.31-3.13-7.28L209.05,183c.11-4,1.69-7.15,3.53-7.1h0C214.41,176,215.82,179.25,215.71,183.22Z"/><path class="cls-2" d="M208,220.43l-34.8-21.16c-2.09-1.48-2.77-4.1-1.53-5.86h0c1.24-1.76,3.94-2,6-.51l34.81,21.16c2.09,1.48,2.77,4.1,1.53,5.86h0C212.82,221.68,210.11,221.91,208,220.43Z"/><rect class="cls-1" x="195.96" y="94.6" width="25.12" height="45.8" rx="12.56"/><path class="cls-2" d="M206.54,119.57l-31.06,14.58a3.9,3.9,0,0,1-5-2.28h0a3.9,3.9,0,0,1,2.29-5l31.07-14.59a3.89,3.89,0,0,1,5,2.29h0A3.9,3.9,0,0,1,206.54,119.57Z"/><rect class="cls-3" x="72.87" y="90.6" width="115.94" height="188.38" rx="12.79"/><path class="cls-4" d="M69.05,40.5,114.7,86.89c2.74,3,3.67,6.67,2.07,8.12h0c-1.6,1.44-5.12.15-7.86-2.89L63.26,45.73c-2.74-3-3.67-6.68-2.07-8.12h0C62.79,36.17,66.31,37.46,69.05,40.5Z"/><path class="cls-4" d="M67.09,35.23l64.07-11.4c4.06-.55,7.58.74,7.87,2.88h0c.29,2.13-2.77,4.3-6.83,4.85L68.13,43c-4.06.55-7.58-.74-7.87-2.88h0C60,38,63,35.78,67.09,35.23Z"/><rect class="cls-5" x="114.4" y="11.42" width="39.86" height="35.12" rx="12.79"/><path class="cls-2" d="M169.64,73.34l1.44,29.09c-.13,1.82-2.38,3.14-5,3h0c-2.64-.18-4.69-1.8-4.56-3.62l-1.44-29.1c.12-1.82,2.37-3.14,5-3h0C167.72,69.9,169.76,71.52,169.64,73.34Z"/><rect class="cls-6" x="137.05" y="54.37" width="57.22" height="35.12" rx="12.79"/></svg>